<?xml version="1.0" encoding="utf-8"?>
<!-- Generator: Adobe Illustrator 14.0.0, SVG Export Plug-In . SVG Version: 6.00 Build 43363)  -->
<!DOCTYPE svg PUBLIC "-//W3C//DTD SVG 1.1//EN" "http://www.w3.org/Graphics/SVG/1.1/DTD/svg11.dtd">
<svg version="1.1" id="BBC" xmlns="http://www.w3.org/2000/svg" xmlns:xlink="http://www.w3.org/1999/xlink" x="0px" y="0px"
	 width="400px" height="300px" viewBox="0 0 400 300" enable-background="new 0 0 400 300" xml:space="preserve">
<path id="B" d="M213.003,162.073c0,9.631-11.985,9.06-11.985,9.06h-11.984v-17.406h11.984
	C213.359,153.656,213.003,162.073,213.003,162.073 M189.033,127.189h9.132c9.487,0.5,9.13,7.562,9.13,7.562
	c0,8.774-10.486,8.917-10.486,8.917h-7.776V127.189L189.033,127.189z M210.791,147.093c0,0,8.204-3.496,8.133-12.771
	c0,0,1.247-15.193-18.887-17.048H177.69v63.705h25.61c0,0,21.401,0.07,21.401-17.979C224.702,163,225.201,150.73,210.791,147.093
	 M152.97,104.79h94.062v88.64H152.97V104.79z"/>
<path id="B_1_" d="M104.533,162.073c0,9.631-11.984,9.06-11.984,9.06H80.564v-17.406h11.985
	C104.89,153.656,104.533,162.073,104.533,162.073 M80.564,127.189h9.131c9.488,0.5,9.131,7.562,9.131,7.562
	c0,8.774-10.487,8.917-10.487,8.917h-7.775V127.189z M102.322,147.093c0,0,8.204-3.496,8.133-12.771c0,0,1.247-15.193-18.887-17.048
	H69.221v63.705h25.611c0,0,21.402,0.07,21.402-17.979C116.233,163,116.732,150.73,102.322,147.093 M44.5,104.79h94.062v88.64H44.5
	V104.79z"/>
<path id="C" d="M336.311,121.84v11.77c0,0-11.485-7.062-24.185-7.205c0,0-23.683-0.462-24.753,22.705
	c0,0-0.857,21.312,24.468,22.523c0,0,10.63,1.284,25.04-7.919v12.199c0,0-19.331,11.485-41.732,2.639
	c0,0-18.832-6.883-19.547-29.442c0,0-0.785-23.203,24.326-30.907c0,0,6.706-2.569,18.762-1.427
	C318.689,116.775,325.895,117.489,336.311,121.84 M261.439,193.43H355.5v-88.64h-94.061V193.43z"/>
</svg>
