<?xml version="1.0" encoding="utf-8"?>
<!-- Generator: Adobe Illustrator 23.0.3, SVG Export Plug-In . SVG Version: 6.00 Build 0)  -->
<svg version="1.1" id="logosvg.com" xmlns="http://www.w3.org/2000/svg" xmlns:xlink="http://www.w3.org/1999/xlink" x="0px"
	 y="0px" viewBox="0 0 400 300" style="enable-background:new 0 0 400 300;" xml:space="preserve">
<style type="text/css">
	.st0{fill:#F3BA2F;}
</style>
<path id="logosvg.com_1_" class="st0" d="M27.9,143.7l15.2-15.2l15.2,15.2l8.9-8.9l-24.1-24.1l-24.1,24.1L27.9,143.7z M12.8,141.1
	l8.9,8.9l-8.9,8.9L3.9,150L12.8,141.1z M27.9,156.3l15.2,15.2l15.2-15.2l8.9,8.9l0,0l-24.1,24.1l-24.1-24.1l0,0L27.9,156.3z
	 M82.4,150l-8.9,8.9l-8.9-8.9l8.9-8.9L82.4,150z M52.1,150L52.1,150l-9-9l-6.6,6.6h0l-0.8,0.8l-1.6,1.6l0,0l0,0l0,0l9,9L52.1,150
	L52.1,150L52.1,150z M96.2,129.8h19.3c4.8,0,8.4,1.2,10.9,3.7c1.9,1.9,2.8,4.3,2.8,7.1v0.1c0,1.2-0.1,2.2-0.4,3.1
	c-0.3,0.9-0.7,1.7-1.2,2.5c-0.5,0.7-1.1,1.4-1.7,1.9c-0.6,0.6-1.3,1-2.1,1.4c2.4,0.9,4.3,2.1,5.7,3.7c1.4,1.6,2.1,3.7,2.1,6.5v0.1
	c0,1.9-0.4,3.6-1.1,5c-0.7,1.4-1.8,2.6-3.1,3.6c-1.4,1-3,1.7-4.9,2.1c-1.9,0.5-4,0.7-6.4,0.7H96.2V129.8z M113.5,146.6
	c2,0,3.6-0.3,4.8-1c1.2-0.7,1.8-1.8,1.8-3.4v-0.1c0-1.4-0.5-2.4-1.5-3.2c-1-0.7-2.5-1.1-4.5-1.1h-9v8.8
	C105.1,146.6,113.5,146.6,113.5,146.6z M115.9,163.4c2,0,3.6-0.4,4.8-1.1c1.1-0.7,1.7-1.9,1.7-3.4v-0.1c0-1.4-0.5-2.5-1.6-3.3
	c-1.1-0.8-2.8-1.2-5.2-1.2h-10.6v9.1L115.9,163.4L115.9,163.4z M142.9,129.8h9.1v41.6h-9.1V129.8z M165.9,129.8h8.4l19.5,25.6v-25.6
	h9v41.6h-7.8L175,144.9v26.4h-9V129.8z M230.6,129.5h8.4l17.8,41.9h-9.6l-3.8-9.3h-17.6l-3.8,9.3h-9.3L230.6,129.5z M240.2,154
	l-5.5-13.5l-5.5,13.5H240.2z M266.7,129.8h8.4l19.5,25.6v-25.6h9v41.6h-7.8l-20.1-26.4v26.4h-9V129.8z M336.6,172.1
	c-3.1,0-5.9-0.6-8.5-1.7c-2.6-1.1-4.9-2.6-6.8-4.5c-1.9-1.9-3.4-4.2-4.5-6.8c-1.1-2.6-1.6-5.4-1.6-8.4v-0.1c0-3,0.5-5.8,1.6-8.3
	c1.1-2.6,2.6-4.9,4.5-6.8c1.9-2,4.2-3.5,6.8-4.6c2.7-1.1,5.6-1.7,8.8-1.7c1.9,0,3.7,0.2,5.3,0.5c1.6,0.3,3.1,0.8,4.4,1.3
	c1.3,0.6,2.5,1.2,3.6,2c1.1,0.8,2.1,1.7,3.1,2.6l-5.8,6.7c-1.6-1.5-3.3-2.6-5-3.4c-1.7-0.8-3.6-1.2-5.7-1.2c-1.7,0-3.4,0.3-4.8,1
	c-1.5,0.7-2.8,1.6-3.8,2.8c-1.1,1.2-1.9,2.6-2.5,4.1c-0.6,1.6-0.9,3.2-0.9,5v0.1c0,1.8,0.3,3.5,0.9,5c0.6,1.6,1.4,3,2.5,4.2
	c1,1.2,2.3,2.1,3.8,2.8c1.5,0.7,3.1,1,4.9,1c2.4,0,4.4-0.4,6-1.3c1.6-0.9,3.3-2.1,4.9-3.6l5.8,5.9c-1.1,1.1-2.2,2.2-3.3,3.1
	c-1.1,0.9-2.4,1.7-3.8,2.3c-1.4,0.7-2.9,1.1-4.5,1.5C340.4,171.9,338.6,172.1,336.6,172.1z M364.4,129.8h31.3v8.1h-22.3v8.4H393v8.1
	h-19.6v8.7H396v8.1h-31.6V129.8z"/>
</svg>
