<?xml version="1.0" encoding="utf-8"?>
<!-- Generator: Adobe Illustrator 14.0.0, SVG Export Plug-In . SVG Version: 6.00 Build 43363)  -->
<!DOCTYPE svg PUBLIC "-//W3C//DTD SVG 1.1//EN" "http://www.w3.org/Graphics/SVG/1.1/DTD/svg11.dtd">
<svg version="1.1"
	 id="boeing" xmlns:cc="http://creativecommons.org/ns#" xmlns:dc="http://purl.org/dc/elements/1.1/" xmlns:svg="http://www.w3.org/2000/svg" xmlns:rdf="http://www.w3.org/1999/02/22-rdf-syntax-ns#"
	 xmlns="http://www.w3.org/2000/svg" xmlns:xlink="http://www.w3.org/1999/xlink" x="0px" y="0px" width="400px" height="300px"
	 viewBox="0 0 400 300" enable-background="new 0 0 400 300" xml:space="preserve">
<path fill="#1D439C" d="M69.982,154.277c1.8-3.853,2.799-8.149,2.799-12.676c0-10.449-5.333-19.652-13.427-25.039
	c4.822-4.962,10.04-9.864,15.595-14.549c-6.51,3.83-12.627,8.214-18.28,12.951c-4.168-2.186-8.914-3.429-13.949-3.429
	c-16.597,0-30.055,13.466-30.055,30.065c0,7.492,2.745,14.355,7.285,19.611c-5.76,12.455-6.767,22.455-1.691,25.838
	c5.431,3.623,17.244-2.945,24.335-13.64c0,0-10.965,9.892-16.988,7.623c-3.706-1.403-3.719-7.073-0.663-15.2
	c4.982,3.661,11.125,5.824,17.777,5.824c8.238,0,15.694-3.312,21.124-8.67l1.067,2.009c13.101-1.063,52.218-2.101,52.218-2.101
	C117.129,161.018,91.229,162.723,69.982,154.277z M21.698,157.645c-3.4-4.457-5.422-10.007-5.422-16.043
	c0-14.613,11.837-26.451,26.445-26.451c3.916,0,7.626,0.853,10.978,2.375C39.365,130.194,28.266,144.918,21.698,157.645z
	 M66.659,152.857c-4.615-2.135-8.918-4.81-12.57-8.183l7.972,14.962c-4.83,5.174-11.703,8.406-19.34,8.406
	c-6.178,0-11.858-2.115-16.361-5.664c5.236-11.818,15.905-27.674,30.453-43.161c7.427,4.685,12.36,12.956,12.36,22.382
	C69.174,145.625,68.268,149.443,66.659,152.857z"/>
<polygon fill="#1D439C" points="249.314,138.837 254.213,132.332 237.154,132.327 241.357,126.753 258.415,126.753 263.325,120.251 
	229.266,120.251 205.834,151.345 239.898,151.345 244.793,144.834 227.738,144.834 232.248,138.837 "/>
<polygon fill="#1D439C" points="272.975,120.251 249.553,151.345 266.545,151.345 289.971,120.251 "/>
<polygon fill="#1D439C" points="329.596,120.251 317.725,136.015 314.074,120.251 300.791,120.251 277.365,151.345 288.607,151.345 
	300.38,135.722 303.995,151.345 317.418,151.345 340.85,120.251 "/>
<path fill="#1D439C" d="M368.518,130.905h16.979l3.004-3.991c0.521-0.691,0.834-1.553,0.834-2.499c0-2.299-1.869-4.164-4.165-4.164
	l-27.318-0.005c-4.676,0-8.82,2.24-11.441,5.713l-14.102,18.715c-0.529,0.694-0.839,1.561-0.839,2.501
	c0,2.299,1.862,4.169,4.16,4.169h27.316c4.68,0,8.836-2.243,11.45-5.713l3.389-4.493h3.945l4.935-6.551H365.74l-6.606,8.763
	c-0.676,0.903-1.756,1.483-2.967,1.483h-4.81c-0.609,0-1.092-0.487-1.092-1.083c0-0.249,0.084-0.474,0.223-0.647l11.203-14.872
	c0.677-0.904,1.754-1.479,2.968-1.479h4.815c0.604,0,1.084,0.484,1.084,1.08c0,0.238-0.089,0.468-0.223,0.655L368.518,130.905z"/>
<path fill="#1D439C" d="M215.328,124.415c0-2.297-1.857-4.164-4.164-4.164h-27.303c-4.679,0-8.831,2.235-11.451,5.708
	l-14.103,18.716c-0.526,0.698-0.833,1.562-0.833,2.504c0,2.297,1.859,4.166,4.159,4.166h27.308c4.685,0,8.84-2.242,11.456-5.712
	l14.1-18.713C215.02,126.225,215.328,125.36,215.328,124.415z M196.336,128.489l-11.208,14.865
	c-0.676,0.901-1.748,1.481-2.967,1.481h-4.814c-0.593,0-1.075-0.484-1.075-1.078c0-0.253,0.083-0.479,0.212-0.652l11.203-14.867
	c0.686-0.894,1.761-1.484,2.97-1.484h4.817c0.598,0,1.08,0.487,1.08,1.08C196.554,128.072,196.471,128.302,196.336,128.489z"/>
<path fill="#1D439C" d="M151.09,136.555c3.348-0.754,6.262-2.693,8.259-5.347l3.229-4.289c0.526-0.694,0.838-1.559,0.838-2.504
	c0-2.297-1.861-4.164-4.161-4.164h-17.462h-16.998l-23.426,31.093h16.696h18.958c4.685,0,8.838-2.242,11.454-5.712l3.305-4.387
	c0.428-0.552,0.666-1.253,0.666-1.999C152.447,138.14,151.908,137.167,151.09,136.555z M135.313,140.569l-2.103,2.789
	c-0.676,0.896-1.748,1.476-2.968,1.476h-6.974l4.514-5.998h6.67c0.596,0,1.08,0.481,1.08,1.08
	C135.534,140.165,135.451,140.391,135.313,140.569z M144.427,128.489l-1.792,2.372c-0.681,0.891-1.75,1.471-2.97,1.471l-6.979-0.005
	l4.208-5.573h6.666c0.593,0,1.08,0.487,1.08,1.08C144.639,128.072,144.562,128.302,144.427,128.489z"/>
</svg>
