<svg id="Capa_1" enable-background="new 0 0 512 512" height="512" viewBox="0 0 512 512" width="512" xmlns="http://www.w3.org/2000/svg"><g><path fill="#fff" d="m496.5 215.367h-13.89c1.144-2.801 1.779-5.86 1.779-9.067v-28.991c0-21.726-15.556-39.88-36.113-43.927.833-.731 1.655-1.48 2.451-2.264 11.023-10.841 17.095-25.325 17.095-40.785v-10.966c4.929-2.673 8.283-7.894 8.283-13.884v-24.85c0-22.405-18.227-40.633-40.632-40.633h-49.7c-22.405 0-40.634 18.228-40.634 40.633v24.851c0 5.99 3.354 11.211 8.283 13.884v10.148c0 17.403 7.723 33.13 19.862 43.81-20.713 3.923-36.429 22.147-36.429 43.983v28.991c0 3.207.635 6.267 1.779 9.067h-13.89c-8.547 0-15.5 6.953-15.5 15.5v17.133c0 8.547 6.953 15.5 15.5 15.5h1.067v34.7h-92.96c-4.143 0-7.5 3.357-7.5 7.5s3.357 7.5 7.5 7.5h92.96v18.133h-155.689c-.275 0-.5-.225-.5-.5v-17.133c0-.275.225-.5.5-.5h32.729c4.143 0 7.5-3.357 7.5-7.5s-3.357-7.5-7.5-7.5h-32.729c-8.547 0-15.5 6.953-15.5 15.5v1.776c-6.505-8.331-15.882-14.311-26.635-16.428.834-.731 1.655-1.48 2.452-2.265 11.023-10.841 17.094-25.325 17.094-40.784v-10.966c4.929-2.673 8.283-7.894 8.283-13.884v-24.849c0-22.405-18.228-40.633-40.633-40.633h-49.7c-22.405 0-40.634 18.227-40.634 40.633v24.851c0 5.99 3.354 11.211 8.283 13.884v10.147c0 17.404 7.723 33.131 19.863 43.811-20.713 3.923-36.429 22.147-36.429 43.982v28.992c0 3.207.635 6.266 1.779 9.066h-2.845c-8.547 0-15.5 6.953-15.5 15.5v17.134c0 8.547 6.953 15.5 15.5 15.5h1.066v67.05c0 8.703 7.08 15.783 15.783 15.783h25.625c4.143 0 7.5-3.357 7.5-7.5s-3.357-7.5-7.5-7.5h-25.624c-.432 0-.783-.352-.783-.783v-17.35h448.867v17.35c0 .432-.352.783-.783.783h-391.675c-4.143 0-7.5 3.357-7.5 7.5s3.357 7.5 7.5 7.5h391.674c8.703 0 15.783-7.08 15.783-15.783v-232.717h1.066c8.547 0 15.5-6.953 15.5-15.5v-17.133c.001-8.547-6.952-15.5-15.499-15.5zm-116.067-43.57c-.088.131-.258.402-.749.343-.48-.061-.59-.368-.642-.516l-7.846-22.199c3.25-1.22 6.765-1.892 10.435-1.892h14.978zm30.189-18.243 11.913 17.87-11.445 8.583c-.275.207-.661.206-.938-.001l-11.443-8.582zm14.014-6.021h14.979c3.67 0 7.185.672 10.435 1.892l-7.847 22.198c-.052.148-.161.456-.642.517-.484.061-.662-.212-.749-.343zm-64.497-106.9c0-14.134 11.499-25.633 25.634-25.633h49.7c14.134 0 25.633 11.499 25.633 25.633v24.851c0 .432-.352.783-.783.783-12.146 0-22.71-8.621-25.121-20.501-1.486-7.32-7.987-12.633-15.457-12.633h-18.245c-7.47 0-13.971 5.312-15.458 12.635-2.41 11.878-12.975 20.499-25.12 20.499-.432 0-.783-.352-.783-.783zm8.283 48.883v-8.958c15.962-3.016 29.004-15.465 32.32-31.806.073-.358.392-.619.758-.619h18.244c.366 0 .685.261.757.617 3.317 16.343 16.359 28.792 32.321 31.808v9.775c0 11.405-4.479 22.092-12.612 30.09-7.958 7.827-18.438 12.11-29.585 12.11-.009 0-.018 0-.026 0s-.016 0-.024 0c-.225 0-.451-.002-.678-.005-22.869-.383-41.475-19.677-41.475-43.012zm-16.567 116.784v-28.991c0-7.098 2.5-13.621 6.662-18.743l6.382 18.057c2.005 5.671 6.959 9.656 12.928 10.401.667.083 1.331.124 1.989.124 3.704 0 7.23-1.296 10.028-3.623l11.308 8.481c2.788 2.091 6.13 3.137 9.471 3.137s6.682-1.046 9.469-3.137l11.308-8.481c2.798 2.327 6.324 3.623 10.028 3.623.658 0 1.323-.041 1.989-.124 5.969-.745 10.923-4.73 12.928-10.401l6.383-18.057c4.161 5.122 6.661 11.645 6.661 18.743v28.991c0 5-4.067 9.067-9.066 9.067h-99.4c-5 0-9.068-4.067-9.068-9.067zm-181.733 140.033h1.066v34.7h-8.868c1.143-2.8 1.779-5.86 1.779-9.066v-26.852c1.853.784 3.888 1.218 6.023 1.218zm-109.978-8.869c-.088.131-.262.401-.749.343-.48-.061-.59-.368-.642-.516l-7.846-22.199c3.249-1.22 6.765-1.892 10.435-1.892h14.977zm30.189-18.243 11.913 17.87-11.442 8.582c-.276.206-.662.208-.94 0l-11.444-8.583zm14.014-6.021h14.979c3.67 0 7.185.672 10.435 1.892l-7.847 22.198c-.052.148-.161.456-.642.517-.474.06-.663-.213-.749-.343zm-64.497-106.9c0-14.134 11.499-25.633 25.634-25.633h49.7c14.134 0 25.633 11.499 25.633 25.633v24.851c0 .432-.352.783-.783.783-12.146 0-22.71-8.621-25.12-20.499-1.485-7.321-7.986-12.635-15.458-12.635h-18.244c-7.472 0-13.973 5.313-15.457 12.634-2.412 11.879-12.978 20.5-25.122 20.5-.432 0-.783-.352-.783-.783zm8.283 48.882v-8.956c15.962-3.016 29.004-15.465 32.322-31.808.072-.357.391-.617.757-.617h18.243c.366 0 .685.26.757.617 3.317 16.343 16.359 28.792 32.321 31.808v9.774c0 11.405-4.479 22.091-12.611 30.089-8.131 7.997-18.866 12.294-30.313 12.105-22.87-.382-41.476-19.677-41.476-43.012zm-16.567 116.785v-28.992c0-7.098 2.5-13.621 6.662-18.743l6.382 18.058c2.005 5.671 6.959 9.656 12.928 10.401.667.083 1.331.124 1.989.124 3.704 0 7.23-1.296 10.028-3.624l11.308 8.481c2.788 2.091 6.129 3.137 9.47 3.137 3.342 0 6.683-1.046 9.471-3.137l11.307-8.481c2.799 2.327 6.325 3.624 10.028 3.624.659 0 1.324-.041 1.991-.124 5.968-.745 10.921-4.73 12.926-10.402l6.383-18.057c4.161 5.122 6.661 11.645 6.661 18.743v28.992c0 4.999-4.067 9.066-9.066 9.066h-99.4c-5 0-9.068-4.067-9.068-9.066zm-16.566 41.7v-17.134c0-.275.225-.5.5-.5h155.689v18.134h-155.689c-.275 0-.5-.225-.5-.5zm465.434 50.2h-448.868v-34.7h147.122c4.143 0 7.5-3.357 7.5-7.5v-33.134-42.2h147.123c4.143 0 7.5-3.357 7.5-7.5v-75.333h139.622v200.367zm16.566-215.867c0 .275-.225.5-.5.5h-171.756c-.275 0-.5-.225-.5-.5v-17.133c0-.275.225-.5.5-.5h171.756c.275 0 .5.225.5.5z"/><path fill="#fff" d="m190.286 234.027c2.981 2.98 6.945 4.623 11.161 4.623 4.217 0 8.181-1.643 11.161-4.623l76.013-76.013c.284-.284.737-.327.992-.097 4.642 4.186 10.655 6.366 16.898 6.169 12.822-.426 23.255-11.426 23.255-24.521v-32.665c0-13.271-10.796-24.067-24.066-24.067h-32.665c-13.201 0-24.204 10.522-24.528 23.456-.154 6.183 2.039 12.112 6.176 16.699.144.159.143.752-.098.991l-76.013 76.013c-6.152 6.154-6.152 16.166 0 22.321zm-1.106-23.428 76.013-76.013c5.843-5.845 6.124-15.555.628-21.646-1.553-1.722-2.376-3.95-2.317-6.276.121-4.869 4.397-8.831 9.532-8.831h32.664c4.999 0 9.066 4.067 9.066 9.067v32.665c0 5.095-3.927 9.369-8.752 9.529-2.35.1-4.612-.744-6.355-2.315-6.195-5.591-15.705-5.313-21.646.629l-76.013 76.013c-.304.304-.802.307-1.107-.001l-11.714-11.713c-.305-.306-.305-.804.001-1.108z"/><path fill="#fff" d="m73.767 263.5c4.143 0 7.5-3.357 7.5-7.5v-4.142c0-4.143-3.357-7.5-7.5-7.5s-7.5 3.357-7.5 7.5v4.142c0 4.143 3.357 7.5 7.5 7.5z"/><path fill="#fff" d="m106.9 263.5c4.143 0 7.5-3.357 7.5-7.5v-4.142c0-4.143-3.357-7.5-7.5-7.5s-7.5 3.357-7.5 7.5v4.142c0 4.143 3.358 7.5 7.5 7.5z"/><path fill="#fff" d="m394.056 97.833c4.143 0 7.5-3.357 7.5-7.5v-4.142c0-4.143-3.357-7.5-7.5-7.5s-7.5 3.357-7.5 7.5v4.142c0 4.143 3.357 7.5 7.5 7.5z"/><path fill="#fff" d="m427.189 97.833c4.143 0 7.5-3.357 7.5-7.5v-4.142c0-4.143-3.357-7.5-7.5-7.5s-7.5 3.357-7.5 7.5v4.142c0 4.143 3.357 7.5 7.5 7.5z"/></g></svg>