<svg id="Capa_1" enable-background="new 0 0 512 512" height="512" viewBox="0 0 512 512" width="512" xmlns="http://www.w3.org/2000/svg"><g><path fill="#fff" d="m466.125 408.338c9.288-11.243 14.875-25.65 14.875-41.338 0-35.841-29.159-65-65-65-1.684 0-3.348.085-5 .211v-92.211h5c8.284 0 15-6.716 15-15s-6.716-15-15-15h-15v-45c0-3.978-1.58-7.793-4.394-10.606l-20-20c-5.857-5.858-15.355-5.858-21.213 0s-5.858 15.355 0 21.213l15.607 15.606v38.787h-20v-5c0-30.643-18.481-57.037-44.875-68.662 9.288-11.243 14.875-25.65 14.875-41.338 0-35.841-29.159-65-65-65s-65 29.159-65 65c0 15.688 5.587 30.095 14.875 41.338-26.394 11.625-44.875 38.019-44.875 68.662v5h-65c-8.284 0-15 6.716-15 15s6.716 15 15 15h5v92.211c-1.652-.126-3.316-.211-5-.211-35.841 0-65 29.159-65 65 0 15.688 5.587 30.095 14.875 41.338-26.394 11.625-44.875 38.019-44.875 68.662v20c0 8.284 6.716 15 15 15h480c8.284 0 15-6.716 15-15v-20c0-30.643-18.481-57.037-44.875-68.662zm-15.125-41.338c0 19.299-15.701 35-35 35s-35-15.701-35-35 15.701-35 35-35 35 15.701 35 35zm-195-337c19.299 0 35 15.701 35 35s-15.701 35-35 35-35-15.701-35-35 15.701-35 35-35zm-65 145c0-24.813 20.187-45 45-45h40c24.813 0 45 20.187 45 45v5h-130zm-60 35h250v102.271c-18.023 11.567-30 31.769-30 54.729 0 15.688 5.587 30.095 14.875 41.338-11.883 5.234-22.166 13.45-29.875 23.714-7.709-10.264-17.992-18.48-29.875-23.714 9.288-11.243 14.875-25.65 14.875-41.338 0-35.841-29.159-65-65-65s-65 29.159-65 65c0 15.688 5.587 30.095 14.875 41.338-11.883 5.234-22.166 13.45-29.875 23.714-7.709-10.264-17.992-18.48-29.875-23.714 9.288-11.243 14.875-25.65 14.875-41.338 0-22.96-11.977-43.162-30-54.729zm90 157c0-19.299 15.701-35 35-35s35 15.701 35 35-15.701 35-35 35-35-15.701-35-35zm-125-35c19.299 0 35 15.701 35 35s-15.701 35-35 35-35-15.701-35-35 15.701-35 35-35zm-65 145c0-24.813 20.187-45 45-45h40c24.813 0 45 20.187 45 45v5h-130zm160 0c0-24.813 20.187-45 45-45h40c24.813 0 45 20.187 45 45v5h-130zm290 5h-130v-5c0-24.813 20.187-45 45-45h40c24.813 0 45 20.187 45 45z"/></g></svg>