<?xml version="1.0" encoding="utf-8"?>
<!-- Generator: Adobe Illustrator 23.0.3, SVG Export Plug-In . SVG Version: 6.00 Build 0)  -->
<svg version="1.1" id="logosvg.com" xmlns="http://www.w3.org/2000/svg" xmlns:xlink="http://www.w3.org/1999/xlink" x="0px"
	 y="0px" viewBox="0 0 400 300" style="enable-background:new 0 0 400 300;" xml:space="preserve">
<style type="text/css">
	.st0{fill:#FF3008;}
</style>
<path id="logosvg.com_1_" class="st0" d="M118.6,140.2V160h4.9c2.5,0,5-1.1,6.7-3c1.8-1.9,2.7-4.4,2.7-7c0.1-2.6-0.9-5.1-2.7-7
	c-1.8-1.9-4.2-2.9-6.8-2.9L118.6,140.2L118.6,140.2z M123.5,134c9.2,0,16.2,7.1,16.2,16.1s-7,16.1-16.2,16.1h-10.9
	c-0.4,0-0.8-0.4-0.8-0.8c0,0,0,0,0,0v-30.6c0-0.4,0.4-0.8,0.8-0.8C112.6,134,123.5,134,123.5,134z M163.4,160.7c4.2,0,8-2.6,9.6-6.5
	c1.6-4,0.7-8.5-2.2-11.6c-2.9-3-7.4-4-11.3-2.3c-3.9,1.6-6.4,5.5-6.4,9.8C153.1,156,157.7,160.7,163.4,160.7 M163.4,133.3
	c9.7,0,17.1,7.6,17.1,16.8s-7.4,16.8-17.1,16.8c-9.7,0-17-7.6-17-16.8S153.8,133.3,163.4,133.3 M204.1,160.7
	c5.7,0,10.3-4.8,10.3-10.6c0-5.9-4.6-10.6-10.3-10.6c-5.7,0-10.3,4.7-10.3,10.6c0,2.8,1.1,5.5,3,7.5
	C198.7,159.6,201.3,160.7,204.1,160.7 M204.1,133.3c9.7,0,17.1,7.6,17.1,16.8s-7.4,16.8-17.1,16.8c-9.6,0-17.1-7.6-17.1-16.8
	S194.4,133.3,204.1,133.3 M243.7,140.2h-7v8.5h7c1.1,0,2.2-0.4,3-1.1c0.8-0.8,1.3-1.9,1.3-3c0-1.2-0.4-2.3-1.2-3.1
	C246,140.6,244.9,140.2,243.7,140.2L243.7,140.2L243.7,140.2z M230,134.8c0-0.4,0.4-0.8,0.8-0.8h13.1c6.3,0,10.8,4.7,10.8,10.6
	c0,4-2.1,7.7-5.6,9.4l6,11c0.2,0.3,0.2,0.6,0,0.9c-0.1,0.3-0.4,0.4-0.7,0.4h-5.3c-0.3,0-0.6-0.2-0.7-0.4l-5.8-10.9h-5.8v10.4
	c0,0.4-0.3,0.8-0.8,0.8c0,0,0,0,0,0h-5.1c-0.4,0-0.8-0.4-0.8-0.8c0,0,0,0,0,0L230,134.8L230,134.8z M272.3,140.4v19.8h4.9
	c2.5,0,5-1.1,6.7-2.9c1.8-1.9,2.8-4.4,2.7-7c0.1-2.6-0.9-5.1-2.7-7c-1.8-1.9-4.2-2.9-6.8-2.9C277.2,140.4,272.3,140.4,272.3,140.4z
	 M277.2,134.2c9.2,0,16.2,7.1,16.2,16.1s-7,16.1-16.2,16.1h-10.9c-0.4,0-0.8-0.4-0.8-0.8c0,0,0,0,0,0V135c0-0.4,0.4-0.8,0.8-0.8
	L277.2,134.2L277.2,134.2z M313.9,142l-3.8,10.6h7.6L313.9,142z M307.9,158.6l-2.5,7.1c-0.1,0.3-0.4,0.6-0.8,0.6h-5.4
	c-0.3,0-0.6-0.1-0.7-0.3c-0.2-0.2-0.2-0.5-0.1-0.8l11.7-30.6c0.1-0.3,0.4-0.5,0.8-0.5h6.1c0.4,0,0.7,0.2,0.8,0.5l11.7,30.6
	c0.1,0.3,0.1,0.6-0.1,0.8c-0.2,0.2-0.4,0.4-0.7,0.3h-5.4c-0.4,0-0.7-0.2-0.8-0.6l-2.5-7.1L307.9,158.6L307.9,158.6z M335.7,142.7
	c0-5.1,4.3-9.4,11-9.4c3.6-0.1,7.1,1.3,9.8,3.8c0.3,0.3,0.3,0.8,0,1.1c0,0,0,0,0,0l-3,3.1c-0.3,0.3-0.8,0.3-1.1,0c0,0,0,0,0,0
	c-1.4-1.3-3.3-2.1-5.2-2.1c-2.7,0-4.7,1.6-4.7,3.5c0,6,15.9,2.5,15.9,14.1c0,5.8-4.3,10.3-11.9,10.3c-4.3,0-8.4-1.6-11.4-4.7
	c-0.3-0.3-0.3-0.8,0-1.1c0,0,0,0,0,0l2.9-3c0.3-0.3,0.8-0.3,1.1,0c0,0,0,0,0,0c1.8,1.8,4.3,2.8,6.9,2.9c3.4,0,5.6-1.8,5.6-4.2
	C351.7,150.8,335.7,154.3,335.7,142.7 M387.3,134.8v12.1h-13.5v-12.1c0-0.4-0.3-0.8-0.8-0.8c0,0,0,0,0,0H368c-0.4,0-0.8,0.4-0.8,0.8
	c0,0,0,0,0,0v30.6c0,0.4,0.4,0.8,0.8,0.8h5.1c0.4,0,0.8-0.4,0.8-0.8v-12.3h13.5v12.3c0,0.4,0.4,0.8,0.8,0.8h5.1
	c0.4,0,0.8-0.4,0.8-0.8v-30.6c0-0.4-0.3-0.8-0.8-0.8c0,0,0,0,0,0h-5.1C387.7,134,387.3,134.4,387.3,134.8z M83.1,138.1
	c-3.5-6.6-10.5-10.7-18-10.6H8c-0.8,0-1.5,0.5-1.8,1.2c-0.3,0.7-0.1,1.6,0.4,2.1L19,143.1c1.1,1.1,2.6,1.7,4.2,1.7h40.3
	c2.9,0,5.2,2.2,5.2,5.1c0,2.8-2.3,5.1-5.1,5.2H35.8c-0.8,0-1.5,0.5-1.8,1.2c-0.3,0.7-0.1,1.6,0.4,2.1l12.4,12.4
	c1.1,1.1,2.6,1.7,4.2,1.7h12.6C79.9,172.4,92.2,155.2,83.1,138.1"/>
</svg>
