<?xml version="1.0" encoding="utf-8"?>
<!-- Generator: Adobe Illustrator 24.1.1, SVG Export Plug-In . SVG Version: 6.00 Build 0)  -->
<svg version="1.1" id="Layer_1" xmlns="http://www.w3.org/2000/svg" xmlns:xlink="http://www.w3.org/1999/xlink" x="0px" y="0px"
	 viewBox="0 0 500 500" style="enable-background:new 0 0 500 500;" xml:space="preserve">
<style type="text/css">
	.st0{fill:#474D55;}
	.st1{clip-path:url(#SVGID_2_);fill:url(#SVGID_3_);}
</style>
<g>
	<path class="st0" d="M200.47,237.32c-1.03-0.35-3.09-0.68-5.14-0.68c-6.17,0-12.68,4.8-12.68,10.96v29.14h-14.06v-51.76h13.36v5.14
		c3.09-3.77,8.91-6.17,15.08-6.17c2.05,0,3.09,0.35,4.8,0.35L200.47,237.32z M216.24,197.56c4.8,0,8.91,3.77,8.91,8.91
		c0,5.14-4.12,8.91-9.26,8.91c-5.14,0-9.26-3.77-9.26-8.91C206.98,201.33,211.1,197.56,216.24,197.56 M223.09,276.74h-14.06v-51.76
		h14.06V276.74z M264.21,223.96c-5.82,0-10.96,2.05-15.08,5.14v-4.12h-13.71v77.45h14.06v-29.47c4.12,3.09,8.57,4.8,14.06,4.8
		c7.54,0,15.08-3.42,19.53-8.91c4.12-4.8,6.52-10.96,6.52-18.16C289.58,235.61,278.27,223.96,264.21,223.96 M262.51,265.08
		c-8.57,0-14.39-5.82-14.39-14.39s5.82-14.39,14.39-14.39c7.54,0,13.36,6.52,13.36,14.39C275.87,258.91,269.7,265.08,262.51,265.08
		 M360.17,200.66h14.06v76.08h-14.06V200.66z M430.78,268.5c-5.14,5.82-13.36,9.26-21.25,9.26c-15.43,0-27.07-10.62-27.07-27.07
		c0-14.39,9.94-27.07,25.37-27.07c14.39,0,24.67,11.99,24.67,26.39c0,1.37,0,2.75-0.35,4.12h-36.33
		c0.68,7.19,6.52,12.34,14.06,12.34c5.82,0,10.62-3.42,13.03-5.82L430.78,268.5z M417.75,244.18c-0.35-4.45-4.45-9.26-10.29-9.26
		c-5.84,0-10.62,4.45-10.96,9.26H417.75L417.75,244.18z M326.59,223.96c-5.82,0-10.96,2.05-15.08,5.14v-4.12h-13.36v77.45h14.06
		v-29.47c4.12,3.09,8.57,4.8,14.06,4.8c7.54,0,15.08-3.42,19.53-8.91c4.12-4.8,6.52-10.96,6.52-18.16
		C351.95,235.61,340.64,223.96,326.59,223.96 M324.88,265.08c-8.57,0-14.39-5.82-14.39-14.39s5.82-14.39,14.39-14.39
		c7.54,0,13.36,6.52,13.36,14.39C338.24,258.91,332.08,265.08,324.88,265.08"/>
	<g>
		<defs>
			<path id="SVGID_1_" d="M121.66,206.13c-5.82,3.42-9.26,9.59-9.26,16.11c0,3.42,1.37,6.86,3.09,9.94
				c1.37,2.75,2.05,7.54-2.75,9.94c-3.42,2.05-7.89,0.68-9.94-2.75c-2.05-2.75-4.45-5.49-7.54-7.54c-5.82-3.42-12.68-3.42-18.5,0
				c-5.82,3.42-9.26,9.61-9.26,16.12c0,6.52,3.42,12.68,9.26,16.11c5.82,3.42,12.68,3.42,18.5,0c3.09-1.72,5.49-4.45,7.19-7.54
				c1.37-2.4,5.14-5.49,9.94-2.75c3.42,2.05,4.45,6.52,2.75,9.94c-1.72,3.09-2.75,6.52-2.75,9.94c0,6.52,3.42,12.68,9.26,16.11
				c5.82,3.42,12.68,3.42,18.5,0s9.26-9.59,9.26-16.11c0-6.52-3.42-12.68-9.26-16.11c-3.09-1.72-6.52-2.4-10.29-2.4
				c-3.09,0-7.19-2.05-7.19-7.19c0-4.12,3.09-7.19,7.19-7.19c3.42,0,7.19-0.68,10.29-2.4c5.82-3.42,9.26-9.59,9.26-16.11
				c0-6.52-3.42-12.68-9.26-16.11c-2.75-1.72-6.17-2.4-9.26-2.4C127.82,203.73,124.38,204.43,121.66,206.13"/>
		</defs>
		<clipPath id="SVGID_2_">
			<use xlink:href="#SVGID_1_"  style="overflow:visible;"/>
		</clipPath>
		
			<linearGradient id="SVGID_3_" gradientUnits="userSpaceOnUse" x1="1.0868" y1="-0.7739" x2="1.2329" y2="-0.7739" gradientTransform="matrix(421.6035 421.6035 -421.6035 421.6035 -700.5533 91.9948)">
			<stop  offset="0" style="stop-color:#11AAE2"/>
			<stop  offset="0.594" style="stop-color:#0880B7"/>
			<stop  offset="1" style="stop-color:#016197"/>
		</linearGradient>
		<polygon class="st1" points="108.63,162.61 194.3,248.63 108.63,334.3 22.6,248.63 		"/>
	</g>
</g>
</svg>
