<svg id="Layer_3" enable-background="new 0 0 64 64" height="512" viewBox="0 0 64 64" width="512" xmlns="http://www.w3.org/2000/svg"><g><path fill="#fff" d="m62 7c.553 0 1-.448 1-1v-4c0-.552-.447-1-1-1h-48c-.553 0-1 .448-1 1v4c0 .552.447 1 1 1h1v16.525c-3.49 1.24-6 4.566-6 8.475 0 3.127 1.604 5.884 4.031 7.497-.016.167-.031.335-.031.503h-3c-4.963 0-9 4.038-9 9v13c0 .552.447 1 1 1h27c.553 0 1-.448 1-1v-7.515c0-1.336.521-2.592 1.465-3.536l13.95-13.949h16.585c.553 0 1-.448 1-1v-4c0-.552-.447-1-1-1h-1v-24zm-47-4h46v2h-46zm3 22c.53 0 1.045.064 1.542.177-1.688 1.782-4.066 2.823-6.542 2.823h-.736c1.266-1.811 3.364-3 5.736-3zm18.586 8-2 2h-8.111c.227-.638.389-1.306.466-2zm7.672 2.329-.258.257-3.586-3.586.258-.258c.479-.478 1.116-.742 1.793-.742 1.397 0 2.535 1.138 2.535 2.536 0 .677-.264 1.314-.742 1.793zm-26.258 5.671c1.034 0 2.024-.184 2.95-.507-.237 1.419-1.465 2.507-2.95 2.507s-2.713-1.088-2.95-2.507c.926.323 1.916.507 2.95.507zm4.969-1.503c.992-.659 1.846-1.509 2.51-2.497h7.108l-1.535 1.535c-.947.945-2.202 1.465-3.537 1.465h-4.515c0-.168-.015-.336-.031-.503zm-1.465-13.547c1.161.675 2.11 1.672 2.725 2.871-1.376-.279-2.676-.884-3.784-1.751.377-.347.731-.72 1.059-1.12zm-10.504 6.05c0-.695.105-1.366.295-2h1.705c2.074 0 4.088-.606 5.817-1.683 1.709 1.472 3.852 2.401 6.095 2.628.052.345.088.695.088 1.055 0 3.86-3.141 7-7 7s-7-3.14-7-7zm19.051 17.535c-1.322 1.322-2.051 3.08-2.051 4.95v6.515h-17v-11h-2v11h-6v-12c0-3.86 3.141-7 7-7h3.424c.774 1.763 2.531 3 4.576 3s3.802-1.237 4.576-3h4.938c1.869 0 3.627-.728 4.95-2.05l6.536-6.536 3.586 3.586zm30.949-14.535h-14.26c.16-.467.26-.956.26-1.464 0-.183-.033-.358-.054-.536h14.054zm-2-4h-12.777c-.816-1.206-2.196-2-3.758-2-1.211 0-2.351.472-3.207 1.329l-.672.671h-11.645c-.499-4.493-4.316-8-8.941-8-.338 0-.671.022-1 .059v-16.059h42z"/><path fill="#fff" d="m28 23c3.859 0 7-3.14 7-7s-3.141-7-7-7-7 3.14-7 7 3.141 7 7 7zm0-2c-1.455 0-2.756-.636-3.67-1.632l3.947-2.368h4.622c-.465 2.279-2.485 4-4.899 4zm4.899-6h-3.899v-3.899c1.956.399 3.5 1.943 3.899 3.899zm-5.899-3.899v4.333l-3.697 2.219c-.184-.521-.303-1.071-.303-1.653 0-2.414 1.721-4.434 4-4.899z"/><path fill="#fff" d="m40 24h16c.553 0 1-.448 1-1v-4c0-.552-.447-1-1-1h-1v-3h-2v3h-2v-5h-2v5h-2v-7h-2v7h-2v-9h-2v9h-1c-.553 0-1 .448-1 1v4c0 .552.447 1 1 1zm1-4h14v2h-14z"/><path fill="#fff" d="m47 26h10v2h-10z"/><path fill="#fff" d="m28 26h7v2h-7z"/><path fill="#fff" d="m26 47h-6c-.553 0-1 .448-1 1v3c0 2.206 1.794 4 4 4s4-1.794 4-4v-3c0-.552-.447-1-1-1zm-1 4c0 1.103-.897 2-2 2s-2-.897-2-2v-2h4z"/></g></svg>